<svg id="Lager_1" data-name="Lager 1" xmlns="http://www.w3.org/2000/svg" viewBox="0 0 292 516.36"><defs><style>.cls-1{fill:#0c191e;stroke:#fff;stroke-miterlimit:10;}</style></defs><title>Ai</title><path class="cls-1" d="M380,170c-45.74,0-44,60.7-19.94,81.93,7,6.16,15.83,9,25.94,6.07C440,257,428,164,380,170Z" transform="translate(-249.03 -169.22)"/><path class="cls-1" d="M362.5,253.68c10.54,12.82-2,20.82-10,20.82-22.44-1.11-36.75,7.82-46,23l-41,81c-11.56,19.68-21,37-13,47,3,4,7.87,1,7-5-1.6-10.93,3.13-17.25,10-22,8-3.68,9.82.4,8,9-1,5,4.95,1.59,8-6-1-9-.66-14.52,5-18,5.6-6.8,9-15,10-20,3.49-13,10.45-24.09,23-32,8.33-6.18,9.22-13,8-20,7,16.8,9.16,49.78,11,84-6.94,27.44-10.26,50.87-7,67,3.48,11.7,1.41,27.21-4,45-8,25-5.91,53.06-1,81,5,22.17,5,42-9,58-30,32-1,52,21,26,15.08-36.67,26.54-70.36,27-95-2-18.33,2.7-32.88,10-46,10.6-25.92,16.27-53,18-81,4.18,6.72,8.09,13.49,8,21,0,11,4.72,34.08,18,61,.56,29.44,5,60,20,85,6.75,10.65,13.27,21.89,18,38,12.75,31.66,26.61,34.73,41,24,6-7,4.5-25.5-16.5-36.5-8.5-4.5-9.5-21.5-8.5-28.5,2-30-2.71-55.77-9-80-7.83-30.6-12.28-57.51-9-76,.87-25.06-3.09-49.2-14-72-6-34.14-9.06-62.88-6-80,1.14,9.76,7,16,20,25,8.47,4,14,9,16,18,2.15,5.58,6.39,10.72,13,15,9.74,6,17.64,18.79,23,41,4,16,13.41,10.61,8,1-1.62-10.68,7-8,12,4-2,19,13,20,8,5-15-57-67-143-99-142-31,1-38.3-7.23-34-21.69" transform="translate(-249.03 -169.22)"/></svg>