<svg id="Layer_1" data-name="Layer 1" xmlns="http://www.w3.org/2000/svg" viewBox="0 0 750 612.5"><defs><style>.cls-1{fill:#000;}</style></defs><title>screen</title><rect class="cls-1" x="0.5" y="0.5" width="749" height="449"/><path d="M1061,92V540H313V92h748m1-1H312V541h750V91Z" transform="translate(-312 -91)"/><ellipse class="cls-1" cx="376" cy="550" rx="156" ry="62"/><path d="M688,579.5c41.68,0,80.85,6.48,110.29,18.23,29.15,11.65,45.21,27,45.21,43.27s-16.06,31.62-45.21,43.27C768.85,696,729.68,702.5,688,702.5S607.15,696,577.71,684.27c-29.15-11.65-45.21-27-45.21-43.27s16.06-31.62,45.21-43.27C607.15,586,646.32,579.5,688,579.5m0-1c-86.43,0-156.5,28-156.5,62.5s70.07,62.5,156.5,62.5,156.5-28,156.5-62.5S774.43,578.5,688,578.5Z" transform="translate(-312 -91)"/><rect class="cls-1" x="350.5" y="449.5" width="49" height="99"/><path d="M711,541v98H663V541h48m1-1H662V640h50V540Z" transform="translate(-312 -91)"/></svg>